<svg width="18" height="18" viewBox="0 0 18 18" fill="none" xmlns="http://www.w3.org/2000/svg">
<path d="M17.695 4.96303C17.695 4.42792 17.6499 3.89496 17.5222 3.37398C17.2929 2.42499 16.7524 1.7001 15.9434 1.16769C15.5272 0.895772 15.0692 0.728802 14.5824 0.640719C14.2086 0.572711 13.8299 0.541719 13.4507 0.533032C13.4224 0.530293 13.3914 0.524346 13.3599 0.521606H4.65013C4.53986 0.530293 4.42955 0.535732 4.31928 0.541171C3.7787 0.572202 3.24136 0.628746 2.73172 0.832693C1.7641 1.215 1.06484 1.88335 0.657378 2.84646C0.516117 3.17222 0.444938 3.51755 0.394421 3.86886C0.352043 4.15221 0.32923 4.43825 0.321051 4.72429C0.321051 4.74715 0.315613 4.76945 0.315613 4.79226V13.655C0.321052 13.7572 0.327039 13.8589 0.332478 13.9612C0.369417 14.5534 0.445487 15.1396 0.694865 15.6835C1.16482 16.7119 1.95424 17.3884 3.03815 17.7141C3.34079 17.8077 3.65806 17.8501 3.97482 17.8784C4.37688 17.9181 4.77836 17.9235 5.18043 17.9235H13.1714C13.5507 17.9235 13.9299 17.8979 14.3091 17.8501C14.9062 17.7734 15.4664 17.5977 15.9733 17.2638C16.5818 16.8614 17.0403 16.329 17.3343 15.6634C17.4701 15.3572 17.5467 15.032 17.6032 14.7029C17.6852 14.213 17.7021 13.717 17.7021 13.2216C17.6994 10.4682 17.702 7.71535 17.6993 4.96193L17.695 4.96303ZM13.0426 7.85457V11.9958C13.0426 12.2987 13.0003 12.5962 12.8644 12.8708C12.6553 13.2983 12.3157 13.5675 11.8599 13.698C11.6078 13.7714 11.3475 13.8111 11.0845 13.8225C10.3968 13.8568 9.79962 13.3891 9.67792 12.7093C9.57309 12.1486 9.842 11.5308 10.4304 11.2421C10.6624 11.1289 10.9145 11.061 11.1661 11.0099C11.4404 10.9506 11.7148 10.8967 11.9865 10.8342C12.1875 10.789 12.3173 10.6672 12.357 10.46C12.3684 10.4149 12.3711 10.3665 12.3711 10.3214C12.3711 9.00422 12.3711 7.68705 12.3711 6.37317C12.3711 6.32805 12.3624 6.28235 12.3516 6.23993C12.3233 6.12955 12.244 6.06428 12.131 6.06972C12.0147 6.07515 11.9017 6.09527 11.7887 6.11812C11.2367 6.22581 10.6852 6.33619 10.1359 6.44932L7.45633 6.99041C7.44494 6.99315 7.43082 6.99914 7.41939 6.99914C7.21838 7.05568 7.14775 7.14651 7.13906 7.35585C7.13632 7.38689 7.13906 7.41842 7.13906 7.44941C7.13632 9.33593 7.13906 11.2225 7.13632 13.1085C7.13632 13.4147 7.10212 13.7148 6.98094 13.9976C6.77992 14.4621 6.42352 14.7541 5.94269 14.8928C5.68787 14.9662 5.42761 15.0091 5.16141 15.0173C4.46814 15.0429 3.89061 14.5811 3.77216 13.8987C3.67003 13.3097 3.93897 12.6751 4.6067 12.3917C4.86691 12.284 5.13586 12.2247 5.41024 12.1682C5.61669 12.1258 5.82643 12.0834 6.03288 12.0409C6.30997 11.9817 6.45447 11.806 6.4686 11.5227V11.415C6.4686 9.26796 6.4686 7.12095 6.4686 4.97391C6.4686 4.88309 6.48003 4.79281 6.49959 4.70473C6.55066 4.49808 6.69787 4.37897 6.89563 4.33056C7.07982 4.28216 7.26944 4.24847 7.45578 4.20875C7.98768 4.10106 8.51688 3.99338 9.04878 3.88843L10.6928 3.55398C11.1796 3.45772 11.6632 3.35876 12.15 3.2625C12.3086 3.23151 12.47 3.19723 12.6308 3.1858C12.8541 3.16624 13.01 3.30761 13.0329 3.53441C13.0383 3.58826 13.0416 3.6421 13.0416 3.69591V7.85128L13.0426 7.85457Z" fill="white"/>
</svg>
