<svg width="26" height="26" viewBox="0 0 26 26" fill="none" xmlns="http://www.w3.org/2000/svg">
<g clip-path="url(#clip0_0_1200)">
<path d="M7.66841 25.5133C7.1558 25.1723 6.70147 24.7509 6.32291 24.2653C5.90649 23.7642 5.52067 23.2383 5.16753 22.6907C4.33885 21.4767 3.68898 20.1498 3.23785 18.7509C2.69591 17.1259 2.43347 15.5683 2.43347 14.0449C2.43347 12.3435 2.80153 10.8583 3.52141 9.61027C4.05504 8.63482 4.83962 7.81966 5.79397 7.24914C6.71885 6.67468 7.78154 6.36031 8.8701 6.33914C9.25116 6.33914 9.66147 6.39439 10.097 6.50002C10.4098 6.58858 10.7908 6.72833 11.2564 6.90221C11.8487 7.13052 12.1745 7.27027 12.285 7.30439C12.632 7.43114 12.9237 7.48639 13.1528 7.48639C13.3267 7.48639 13.572 7.43114 13.8507 7.34664C14.0075 7.29139 14.3033 7.19389 14.7266 7.01271C15.1458 6.85996 15.4757 6.72914 15.7382 6.63164C16.1403 6.51302 16.5295 6.40333 16.8765 6.34808C17.2878 6.28324 17.7052 6.26606 18.1204 6.29689C18.84 6.34393 19.5487 6.49641 20.224 6.74946C21.3282 7.19389 22.2211 7.88777 22.8857 8.87414C22.6048 9.04728 22.3412 9.24699 22.0984 9.47052C21.57 9.93899 21.1198 10.489 20.7651 11.0996C20.3014 11.9341 20.061 12.8741 20.0672 13.8288C20.0842 15.0012 20.3848 16.0339 20.9772 16.9268C21.4126 17.5886 21.9786 18.1546 22.6403 18.59C22.9792 18.8183 23.2708 18.9751 23.5503 19.0808C23.4195 19.487 23.2798 19.8803 23.1148 20.2703C22.7408 21.1448 22.2874 21.9833 21.7604 22.7752C21.2908 23.4569 20.9227 23.9647 20.6432 24.3027C20.2077 24.8186 19.7885 25.2127 19.3652 25.4873C18.8996 25.7961 18.3495 25.961 17.7905 25.961C17.412 25.9756 17.0335 25.9298 16.6693 25.8253C16.3565 25.7197 16.0469 25.6051 15.7422 25.4743C15.4255 25.3288 15.0988 25.2058 14.7648 25.1063C13.939 24.8942 13.0733 24.8928 12.2468 25.1022C11.908 25.1997 11.5822 25.3135 11.2605 25.4532C10.8079 25.6433 10.5073 25.7709 10.3334 25.8253C9.98647 25.9269 9.62653 25.9903 9.26253 26.0114C8.69947 26.0114 8.1746 25.8505 7.6546 25.5247L7.66841 25.5133ZM15.0947 5.51364C14.3585 5.88171 13.6557 6.03852 12.9578 5.98733C12.8481 5.28452 12.9578 4.56546 13.2495 3.77814C13.4978 3.11114 13.8647 2.49454 14.3325 1.95814C14.8265 1.39347 15.426 0.930637 16.0973 0.595582C16.8123 0.227519 17.494 0.0284565 18.1456 -0.000793457C18.2301 0.735332 18.1456 1.45927 17.875 2.24171C17.6246 2.93337 17.2584 3.5774 16.792 4.14621C16.3159 4.71165 15.7316 5.17628 15.0735 5.51283L15.0947 5.51364Z" fill="white"/>
</g>
<defs>
<clipPath id="clip0_0_1200">
<rect width="26" height="26" fill="white"/>
</clipPath>
</defs>
</svg>
