<svg width="64" height="68" viewBox="0 0 64 68" fill="none" xmlns="http://www.w3.org/2000/svg">
<path d="M28.7425 66.9619L24.512 63.5719H15.6479C14.481 63.5745 13.3431 63.2122 12.3966 62.5366C11.4501 61.8611 10.7433 60.9068 10.3771 59.81L7.10829 49.6263L2.28373 45.7625C1.33855 45.091 0.633916 44.1391 0.271944 43.0445C-0.090029 41.95 -0.0905305 40.7698 0.270512 39.675L2.09168 34.0004L0.270512 28.3268C-0.0906162 27.2319 -0.090159 26.0516 0.271817 24.9571C0.633793 23.8625 1.33848 22.9104 2.28373 22.239L7.10829 18.3733L10.3771 8.1918C10.7433 7.09492 11.45 6.14056 12.3965 5.46488C13.343 4.78919 14.4809 4.42671 15.6479 4.42916H24.5116L28.7425 1.0399C29.6915 0.363773 30.831 0 32.0002 0C33.1694 0 34.309 0.363773 35.2579 1.0399L39.4884 4.42952H48.3526C49.5195 4.42713 50.6574 4.78963 51.6039 5.46531C52.5503 6.14098 53.2571 7.09532 53.6233 8.19216L56.8914 18.3737L61.716 22.2393C62.6613 22.9108 63.366 23.8628 63.7281 24.9574C64.0901 26.0519 64.0906 27.2322 63.7296 28.3271L61.908 34.0018L63.7296 39.6765C64.0906 40.7713 64.09 41.9515 63.728 43.0461C63.3659 44.1406 62.6612 45.0925 61.716 45.7639L56.8918 49.6263L53.6237 59.8082C53.2574 60.9049 52.5506 61.8591 51.6041 62.5347C50.6576 63.2102 49.5198 63.5726 48.3529 63.5701H39.4884L35.2579 66.9601C34.309 67.6362 33.1694 68 32.0002 68C30.831 68 29.6915 67.6362 28.7425 66.9601V66.9619ZM31.9584 54.7559H32.0424C32.4765 54.7411 32.9128 54.7429 33.3484 54.7451C34.3917 54.7881 35.4366 54.7153 36.4635 54.5282C38.2569 54.1346 39.2672 53.1153 39.5651 51.3475V49.4601L34.8504 48.9631H29.1503L24.435 49.5826V51.3472C24.7325 53.1135 25.7435 54.1328 27.5384 54.5279C28.5652 54.715 29.61 54.7878 30.6531 54.7447C30.8038 54.7447 30.9545 54.7447 31.1051 54.7447C31.3892 54.7436 31.674 54.7462 31.9584 54.7559ZM42.5959 24.3878L42.36 26.9862C42.3597 27.0537 42.3382 27.1195 42.2984 27.1743C42.2586 27.2292 42.2026 27.2704 42.138 27.2923L36.1721 29.1657C36.0796 29.1945 35.9987 29.2517 35.9412 29.329C35.8837 29.4063 35.8526 29.4998 35.8523 29.5958V29.7404C35.8523 33.2554 35.8589 36.7701 35.8399 40.2844C35.8234 40.5884 35.7255 40.8826 35.5562 41.1367C35.0067 41.8824 34.233 42.8467 33.3904 43.0863C33.0691 43.1729 32.7375 43.2161 32.4046 43.215L32.5667 47.6565L40.7316 48.4589C41.5604 48.2803 41.9066 47.6304 42.2286 46.8746L41.6152 40.4771L44.1812 40.2147C46.9155 37.0701 48.4585 33.5092 48.1919 29.3056C48.0824 27.5793 47.5712 25.9279 47.163 24.2594C46.7819 22.7092 46.3598 21.1684 45.941 19.6275C45.0754 16.449 43.1742 14.919 39.8094 14.7842C37.7242 14.6992 35.6343 14.7285 33.547 14.6844H32.0011H30.4552C28.3679 14.7285 26.2784 14.6992 24.1932 14.7842C20.8284 14.9204 18.9269 16.4504 18.0616 19.6275C17.6421 21.1684 17.2218 22.7092 16.8396 24.2594C16.4288 25.9268 15.9177 27.5782 15.8081 29.3045C15.5416 33.5081 17.086 37.0697 19.8189 40.2136L22.3849 40.476L21.7715 46.8736C22.0939 47.629 22.4396 48.2789 23.2684 48.4578L31.5831 47.6409H31.6674L31.9025 43.2024C31.7357 43.1933 31.5681 43.1807 31.4016 43.168C30.7521 43.1196 30.1139 42.3548 29.5958 41.8332C28.3511 40.6506 28.3438 38.8835 29.6787 37.8291C30.3413 37.2632 31.1795 36.9387 32.0542 36.9095C32.9289 36.8804 33.7873 37.1484 34.4868 37.669C34.5389 37.6946 34.5929 37.7165 34.6482 37.7344C34.6482 37.5375 34.6482 37.373 34.6482 37.2067C34.656 33.4289 34.6639 29.651 34.6719 25.8729C34.6719 25.3821 34.7351 25.2277 35.2411 25.2162L42.21 24.0679C42.2283 24.0648 42.2469 24.0632 42.2655 24.0632C42.3087 24.0629 42.3516 24.0711 42.3916 24.0873C42.4316 24.1035 42.468 24.1274 42.4987 24.1576C42.5294 24.1877 42.5538 24.2236 42.5705 24.2631C42.5872 24.3026 42.5958 24.3449 42.5959 24.3878ZM26.1729 28.8534L22.3757 27.7246L20.9197 27.2909C20.855 27.2691 20.7988 27.2279 20.7589 27.173C20.719 27.1182 20.6973 27.0523 20.697 26.9847L20.6371 26.3204L20.5666 25.5411L20.4622 24.3863C20.4626 24.3391 20.4734 24.2926 20.4938 24.25C20.5141 24.2074 20.5436 24.1697 20.5802 24.1394C20.6168 24.1092 20.6595 24.0872 20.7056 24.075C20.7516 24.0628 20.7997 24.0606 20.8467 24.0686L27.8155 25.2169C28.3212 25.2281 28.384 25.3824 28.3847 25.8736L27.8119 29.3395L26.1729 28.8534Z" fill="white"/>
</svg>
