<svg width="28" height="22" viewBox="0 0 28 22" fill="none" xmlns="http://www.w3.org/2000/svg">
<path d="M6.27976 21.7584H21.7142C22.9868 21.7584 24.0152 20.7235 24.0152 19.4568V8.85127C24.0152 7.57867 22.9804 6.54995 21.7142 6.54995H14.5339V5.23031C15.6651 4.99203 16.5202 3.97647 16.5202 2.76799C16.5202 1.37303 15.3887 0.241547 14.0002 0.241547C13.3302 0.241695 12.6877 0.50793 12.214 0.981705C11.7403 1.45548 11.4741 2.098 11.474 2.76799C11.474 3.97647 12.3289 4.99203 13.4665 5.23003V6.54967H6.27976C5.00716 6.54967 3.97872 7.58483 3.97872 8.85127V19.4633C3.97872 20.73 5.00716 21.7584 6.27976 21.7584ZM17.7158 9.80887C18.6992 9.80887 19.4963 10.606 19.4963 11.5832C19.4963 12.5666 18.6992 13.3573 17.7155 13.3573C17.4825 13.3574 17.2518 13.3115 17.0365 13.2224C16.8212 13.1333 16.6256 13.0026 16.4609 12.8379C16.2961 12.6731 16.1655 12.4775 16.0763 12.2622C15.9872 12.047 15.9414 11.8162 15.9414 11.5832C15.935 10.606 16.7322 9.80887 17.7158 9.80887ZM17.041 17.1258C17.1111 17.1256 17.1805 17.1393 17.2453 17.1661C17.3101 17.1928 17.369 17.2321 17.4186 17.2816C17.4681 17.3312 17.5074 17.3901 17.5342 17.4549C17.5609 17.5197 17.5746 17.5891 17.5744 17.6592C17.5746 17.7294 17.561 17.7989 17.5342 17.8637C17.5075 17.9286 17.4682 17.9875 17.4186 18.0371C17.369 18.0867 17.3101 18.126 17.2452 18.1527C17.1804 18.1795 17.1109 18.1931 17.0407 18.1929H10.9532C10.6576 18.1929 10.4196 17.9549 10.4196 17.6592C10.4196 17.3635 10.6576 17.1258 10.9532 17.1258H17.041ZM10.2846 9.80887C10.5176 9.80876 10.7484 9.85458 10.9637 9.94371C11.1791 10.0328 11.3747 10.1635 11.5395 10.3283C11.7043 10.4931 11.835 10.6888 11.9241 10.9041C12.0132 11.1194 12.0591 11.3502 12.059 11.5832C12.0595 11.8164 12.0141 12.0474 11.9251 12.2629C11.8361 12.4784 11.7054 12.6742 11.5406 12.8391C11.3757 13.004 11.1798 13.1346 10.9643 13.2235C10.7488 13.3125 10.5178 13.3579 10.2846 13.3573C10.0515 13.3579 9.82049 13.3124 9.60499 13.2235C9.38948 13.1345 9.19367 13.0039 9.02881 12.839C8.86396 12.6742 8.7333 12.4783 8.64436 12.2628C8.55541 12.0473 8.50992 11.8164 8.51052 11.5832C8.50408 10.606 9.29452 9.80887 10.2846 9.80887ZM25.0826 9.32671V17.0211C26.304 17.0085 27.3002 15.9991 27.3002 14.7716V11.5768C27.3002 10.349 26.304 9.34603 25.0826 9.32671ZM2.91164 17.0214V9.32699C1.68384 9.34603 0.700197 10.349 0.700197 11.5768V14.7651C0.699504 15.356 0.930867 15.9236 1.34448 16.3455C1.75808 16.7675 2.32086 17.0102 2.91164 17.0214Z" fill="white"/>
</svg>
