<svg width="16" height="16" viewBox="0 0 16 16" fill="none" xmlns="http://www.w3.org/2000/svg">
<g clip-path="url(#clip0_461_127)">
<path d="M9.76216 6.23622C9.57262 6.04556 9.36248 5.87656 9.13562 5.73231C8.53473 5.34755 7.83615 5.14306 7.12263 5.14307C6.63231 5.14216 6.14665 5.23828 5.69364 5.42589C5.24063 5.6135 4.82922 5.8889 4.48311 6.23622L1.09172 9.63027C0.393841 10.3295 0.00160898 11.2768 0.000977335 12.2647C-0.000334929 14.3262 1.66974 15.9985 3.73124 15.9998C4.22081 16.0015 4.70587 15.9062 5.15844 15.7195C5.61101 15.5328 6.02214 15.2584 6.36811 14.912L9.16761 12.1125C9.2052 12.0752 9.23084 12.0275 9.24125 11.9756C9.25166 11.9237 9.24637 11.8698 9.22607 11.8209C9.20576 11.772 9.17135 11.7303 9.12722 11.701C9.0831 11.6717 9.03125 11.6563 8.9783 11.6566H8.87166C8.28677 11.6586 7.70712 11.5463 7.16531 11.326C7.11651 11.3059 7.06284 11.3007 7.01111 11.3112C6.95938 11.3216 6.91191 11.3472 6.87471 11.3846L4.86173 13.4002C4.23665 14.0253 3.22321 14.0253 2.59814 13.4002C1.97306 12.7752 1.97306 11.7617 2.59814 11.1367L6.00287 7.73461C6.62744 7.11081 7.63923 7.11081 8.2638 7.73461C8.68473 8.13075 9.3413 8.13075 9.76219 7.73461C9.94329 7.55335 10.0531 7.31295 10.0715 7.05738C10.0811 6.9064 10.0585 6.7551 10.0052 6.61352C9.95185 6.47194 9.86901 6.34333 9.76216 6.23622Z" fill="white"/>
<path d="M14.905 1.09333C13.4473 -0.364442 11.0837 -0.364442 9.62597 1.09333L6.82913 3.88748C6.7916 3.9252 6.76621 3.97329 6.75623 4.02555C6.74625 4.07782 6.75214 4.13188 6.77314 4.18077C6.7939 4.22981 6.82886 4.27151 6.87353 4.30049C6.91819 4.32948 6.97052 4.34442 7.02375 4.3434H7.12239C7.70659 4.34233 8.28536 4.45555 8.82609 4.67668C8.87489 4.69677 8.92856 4.70192 8.98029 4.69148C9.03202 4.68104 9.07949 4.65548 9.11669 4.61804L11.1243 2.61305C11.7494 1.98798 12.7628 1.98798 13.3879 2.61305C14.013 3.23813 14.013 4.25157 13.3879 4.87665L10.887 7.37485L10.8657 7.39885L9.99119 8.26804C9.36661 8.89183 8.35483 8.89183 7.73025 8.26804C7.30933 7.87189 6.65276 7.87189 6.23186 8.26804C6.04962 8.45066 5.93973 8.69314 5.92258 8.95057C5.91294 9.10156 5.93553 9.25287 5.98886 9.39445C6.04218 9.53603 6.12502 9.66465 6.23186 9.77177C6.54045 10.0817 6.90152 10.3344 7.29833 10.5183C7.35432 10.5449 7.41031 10.5663 7.4663 10.5903C7.52229 10.6143 7.58093 10.6329 7.63692 10.6543C7.69298 10.6753 7.74991 10.694 7.80755 10.7103L7.96487 10.7529C8.0715 10.7796 8.17817 10.8009 8.28746 10.8195C8.41913 10.8391 8.55173 10.8516 8.68474 10.8569H8.88736L9.04733 10.8382C9.10597 10.8356 9.16731 10.8222 9.23664 10.8222H9.32728L9.51124 10.7956L9.59657 10.7796L9.7512 10.7476H9.78054C10.4355 10.5831 11.0335 10.244 11.5109 9.76642L14.9049 6.37238C16.3628 4.91461 16.3628 2.5511 14.905 1.09333Z" fill="white"/>
</g>
<defs>
<clipPath id="clip0_461_127">
<rect width="16" height="16" fill="white"/>
</clipPath>
</defs>
</svg>
