<svg width="52" height="35" viewBox="0 0 52 35" fill="none" xmlns="http://www.w3.org/2000/svg">
<path d="M39.791 13.1006H43.3242C48.4753 13.8854 51.9003 18.45 51.9004 23.834C51.9033 25.6167 51.4573 27.3707 50.6074 28.9365L30.3721 16.5449L36.2461 13.8721H36.2471C37.3586 13.3617 38.5679 13.098 39.791 13.1006Z" fill="white" stroke="white" stroke-width="0.2"/>
<path d="M50.5105 29.1122C49.5857 30.7548 48.2445 32.1258 46.6199 33.0839C44.9679 34.0579 43.0845 34.5707 41.1667 34.5682H12.9998C10.9318 34.5708 8.89392 34.0743 7.05835 33.1219C5.25809 32.1879 3.70554 30.8411 2.52515 29.1932L30.1531 16.6454L50.5105 29.1122Z" fill="white" stroke="white" stroke-width="0.2"/>
<path d="M13.6719 8.76727C16.0512 8.76693 18.3842 9.42611 20.4121 10.6706L29.9463 16.5192L2.40723 29.027C0.90054 26.8698 0.0944607 24.3003 0.100586 21.6677V21.6667C0.0852393 18.5944 1.15527 15.6158 3.12207 13.2556C5.08787 10.8966 7.82296 9.30704 10.8457 8.76727H13.6719Z" fill="white" stroke="white" stroke-width="0.2"/>
<path d="M25.9985 0.101562H26.0005C34.0383 0.101738 41.2921 5.47376 43.2036 12.9014H39.7905C38.6951 12.8992 37.6104 13.1044 36.5942 13.5059L36.1636 13.6904L30.1665 16.4189L20.5161 10.5C18.4568 9.23633 16.0875 8.56702 13.6714 8.56738H11.0103C12.526 5.98723 14.6887 3.84604 17.2886 2.36035C19.9391 0.84576 22.946 0.0663635 25.9985 0.101562Z" fill="white" stroke="white" stroke-width="0.2"/>
</svg>
