<svg width="28" height="28" viewBox="0 0 28 28" fill="none" xmlns="http://www.w3.org/2000/svg">
<g clip-path="url(#clip0_754_11542)">
<path d="M1.03905 1.02818C1.70077 0.37193 2.59218 0.0109924 3.52187 0.0164612C4.98202 0.0109924 6.40937 0.0109924 7.76562 0.0109924H9.9203C11.7742 0.0164612 13.3109 1.55318 13.3437 3.44537C13.382 5.70396 13.382 7.80396 13.3437 9.85474C13.3055 11.818 11.7906 13.3165 9.8164 13.3383C8.74999 13.3547 7.67812 13.3602 6.63359 13.3602C3.6039 13.3876 0.278898 13.7704 0.021867 9.75084C0.0328045 8.57506 0.021867 7.41568 0.021867 6.24537C0.0929608 4.49537 -0.38282 2.35709 1.03905 1.02818ZM13.3492 20.7594C13.3492 21.9188 13.3437 23.1219 13.3547 24.3032C13.4094 26.2829 11.7851 28.0219 9.80546 27.9891C8.16483 27.9508 6.39296 27.9946 4.73046 27.9836C3.42343 28.0438 1.96874 27.9727 1.03905 26.961C0.136711 26.1243 -0.0601642 24.8063 0.0163983 23.6032C0.0109295 21.804 0.0109295 19.9446 0.0273358 18.1126C0.0328045 16.5485 1.08827 15.1868 2.59765 14.7876C4.00859 14.5032 5.32655 14.7001 6.91249 14.6399C7.82577 14.6399 8.73358 14.6399 9.64687 14.6454C13.4258 14.8422 13.4695 17.7461 13.3492 20.7594ZM26.0367 16.6086C30.2094 20.7321 27.2016 28.0274 21.3226 27.9891C15.482 28.0219 12.3976 20.7376 16.6086 16.6196C19.0969 14.0219 23.5484 13.9946 26.0367 16.6086ZM14.6562 9.78365C14.6289 7.55787 14.6289 5.50709 14.6562 3.52193C14.6508 1.59146 16.2148 0.0164612 18.1453 0.0109924H18.1891C20.2836 -0.00541382 22.3726 -0.00541382 24.5601 0.0109924C26.3703 -0.0163513 28 1.62974 27.9781 3.4399C27.9891 4.65943 27.9781 5.85709 27.9781 7.06568C27.918 8.81568 28.3555 10.9868 26.9555 12.3102C25.5281 13.8032 23.1601 13.2399 21.3117 13.3547C20.2617 13.3547 19.2117 13.3493 18.1945 13.3329C16.2476 13.3383 14.6617 11.7688 14.6562 9.81646V9.78365Z" fill="white"/>
</g>
<defs>
<clipPath id="clip0_754_11542">
<rect width="28" height="28" fill="white"/>
</clipPath>
</defs>
</svg>
