<svg width="50" height="50" viewBox="0 0 50 50" fill="none" xmlns="http://www.w3.org/2000/svg">
<path fill-rule="evenodd" clip-rule="evenodd" d="M6.375 0.5C3.29063 0.5 0.75 3.04063 0.75 6.125V39.875C0.75 42.9594 3.29063 45.5 6.375 45.5H19.8338C19.6149 44.899 19.5019 44.2646 19.5 43.625V17.375C19.5 14.2906 22.0406 11.75 25.125 11.75H36.375V6.125C36.375 3.04063 33.8344 0.5 30.75 0.5H28.875V4.25C28.875 6.29375 27.1688 8 25.125 8H12C9.95625 8 8.25 6.29375 8.25 4.25V0.5H6.375ZM12 0.5V4.25H25.125V0.5H12Z" fill="white"/>
<path fill-rule="evenodd" clip-rule="evenodd" d="M12 0.5V4.25H25.125V0.5H12ZM28.875 15.5C25.7906 15.5 23.25 18.0406 23.25 21.125V43.625C23.25 46.7094 25.7906 49.25 28.875 49.25H43.875C46.9594 49.25 49.5 46.7094 49.5 43.625V21.125C49.5 18.0406 46.9594 15.5 43.875 15.5H28.875ZM32.625 23H40.125C40.6223 23 41.0992 23.1975 41.4508 23.5492C41.8025 23.9008 42 24.3777 42 24.875C42 25.3723 41.8025 25.8492 41.4508 26.2008C41.0992 26.5525 40.6223 26.75 40.125 26.75H32.625C32.1277 26.75 31.6508 26.5525 31.2992 26.2008C30.9475 25.8492 30.75 25.3723 30.75 24.875C30.75 24.3777 30.9475 23.9008 31.2992 23.5492C31.6508 23.1975 32.1277 23 32.625 23ZM32.625 28.625H40.125C40.6223 28.625 41.0992 28.8225 41.4508 29.1742C41.8025 29.5258 42 30.0027 42 30.5C42 30.9973 41.8025 31.4742 41.4508 31.8258C41.0992 32.1775 40.6223 32.375 40.125 32.375H32.625C32.1277 32.375 31.6508 32.1775 31.2992 31.8258C30.9475 31.4742 30.75 30.9973 30.75 30.5C30.75 30.0027 30.9475 29.5258 31.2992 29.1742C31.6508 28.8225 32.1277 28.625 32.625 28.625ZM32.625 34.25H40.125C40.6223 34.25 41.0992 34.4475 41.4508 34.7992C41.8025 35.1508 42 35.6277 42 36.125C42 36.6223 41.8025 37.0992 41.4508 37.4508C41.0992 37.8025 40.6223 38 40.125 38H32.625C32.1277 38 31.6508 37.8025 31.2992 37.4508C30.9475 37.0992 30.75 36.6223 30.75 36.125C30.75 35.6277 30.9475 35.1508 31.2992 34.7992C31.6508 34.4475 32.1277 34.25 32.625 34.25ZM32.625 39.875H40.125C40.6223 39.875 41.0992 40.0725 41.4508 40.4242C41.8025 40.7758 42 41.2527 42 41.75C42 42.2473 41.8025 42.7242 41.4508 43.0758C41.0992 43.4275 40.6223 43.625 40.125 43.625H32.625C32.1277 43.625 31.6508 43.4275 31.2992 43.0758C30.9475 42.7242 30.75 42.2473 30.75 41.75C30.75 41.2527 30.9475 40.7758 31.2992 40.4242C31.6508 40.0725 32.1277 39.875 32.625 39.875Z" fill="white"/>
</svg>
