<svg width="24" height="24" viewBox="0 0 24 24" fill="none" xmlns="http://www.w3.org/2000/svg">
<path fill-rule="evenodd" clip-rule="evenodd" d="M5.9817 2.83383C5.94393 2.66813 5.85101 2.52017 5.71816 2.41419C5.58531 2.30821 5.4204 2.25049 5.25045 2.25049C5.0805 2.25049 4.91559 2.30821 4.78274 2.41419C4.64988 2.52017 4.55696 2.66813 4.5192 2.83383L4.2432 4.04733C4.14914 4.4609 3.94011 4.83945 3.64021 5.13935C3.34031 5.43925 2.96176 5.64828 2.5482 5.74233L1.33432 6.01871C1.16862 6.05647 1.02066 6.14939 0.914679 6.28225C0.808696 6.4151 0.750977 6.58001 0.750977 6.74996C0.750977 6.91991 0.808696 7.08482 0.914679 7.21767C1.02066 7.35053 1.16862 7.44345 1.33432 7.48121L2.54782 7.75721C2.96138 7.85127 3.33994 8.06029 3.63984 8.36019C3.93974 8.66009 4.14877 9.03865 4.24282 9.45221L4.5192 10.6661C4.55696 10.8318 4.64988 10.9797 4.78274 11.0857C4.91559 11.1917 5.0805 11.2494 5.25045 11.2494C5.4204 11.2494 5.58531 11.1917 5.71816 11.0857C5.85101 10.9797 5.94393 10.8318 5.9817 10.6661L6.2577 9.45221C6.35175 9.03865 6.56078 8.66009 6.86068 8.36019C7.16058 8.06029 7.53914 7.85127 7.9527 7.75721L9.16695 7.48121C9.33265 7.44345 9.48061 7.35053 9.58659 7.21767C9.69258 7.08482 9.75029 6.91991 9.75029 6.74996C9.75029 6.58001 9.69258 6.4151 9.58659 6.28225C9.48061 6.14939 9.33265 6.05647 9.16695 6.01871L7.95307 5.74271C7.53951 5.64865 7.16096 5.43962 6.86106 5.13973C6.56116 4.83983 6.35213 4.46127 6.25807 4.04771L5.9817 2.83383ZM4.00245 6.74996C4.51132 6.43908 4.93995 6.01121 5.25045 5.50158C5.56132 6.01083 5.9892 6.43908 6.49882 6.74996C5.98957 7.06083 5.56132 7.48871 5.25045 7.99833C4.93958 7.48893 4.51176 7.06098 4.00245 6.74996Z" fill="white"/>
<path d="M11.625 6C11.4261 6 11.2353 6.07902 11.0947 6.21967C10.954 6.36032 10.875 6.55109 10.875 6.75C10.875 6.94891 10.954 7.13968 11.0947 7.28033C11.2353 7.42098 11.4261 7.5 11.625 7.5H15.75C16.1478 7.5 16.5294 7.65804 16.8107 7.93934C17.092 8.22064 17.25 8.60218 17.25 9V10.125C17.25 10.2528 17.2827 10.3785 17.3449 10.4902C17.4072 10.6018 17.4969 10.6957 17.6056 10.7629C17.7144 10.8301 17.8385 10.8684 17.9662 10.8742C18.0939 10.88 18.2209 10.853 18.3353 10.7959L20.6647 9.63113C20.7791 9.57397 20.9062 9.54701 21.0339 9.55279C21.1617 9.55858 21.2858 9.59692 21.3945 9.66418C21.5033 9.73143 21.593 9.82537 21.6552 9.93707C21.7174 10.0488 21.7501 10.1745 21.75 10.3024V17.448C21.75 17.5758 21.7173 17.7015 21.6551 17.8132C21.5928 17.9248 21.5031 18.0187 21.3944 18.0859C21.2856 18.1531 21.1615 18.1914 21.0338 18.1972C20.9061 18.203 20.7791 18.176 20.6647 18.1189L18.3353 16.9541C18.2209 16.897 18.0939 16.87 17.9662 16.8758C17.8385 16.8816 17.7144 16.9199 17.6056 16.9871C17.4969 17.0543 17.4072 17.1482 17.3449 17.2598C17.2827 17.3715 17.25 17.4972 17.25 17.625V18.75C17.25 19.1478 17.092 19.5294 16.8107 19.8107C16.5294 20.092 16.1478 20.25 15.75 20.25H3.75C3.35218 20.25 2.97064 20.092 2.68934 19.8107C2.40804 19.5294 2.25 19.1478 2.25 18.75V9.375C2.25 9.17609 2.17098 8.98532 2.03033 8.84467C1.88968 8.70402 1.69891 8.625 1.5 8.625C1.30109 8.625 1.11032 8.70402 0.96967 8.84467C0.829018 8.98532 0.75 9.17609 0.75 9.375V18.75C0.75 19.5456 1.06607 20.3087 1.62868 20.8713C2.19129 21.4339 2.95435 21.75 3.75 21.75H15.75C16.5305 21.75 17.2803 21.4459 17.8402 20.9022C18.4001 20.3584 18.726 19.6179 18.7489 18.8378L19.9939 19.4603C21.4901 20.2088 23.25 19.1205 23.25 17.448V10.302C23.25 8.6295 21.4897 7.54163 19.9939 8.28975L18.7489 8.91225C18.726 8.1321 18.4001 7.39156 17.8402 6.84782C17.2803 6.30409 16.5305 5.99996 15.75 6H11.625Z" fill="white"/>
</svg>
