<svg width="22" height="24" viewBox="0 0 22 24" fill="none" xmlns="http://www.w3.org/2000/svg">
<path fill-rule="evenodd" clip-rule="evenodd" d="M16.6248 0.75C16.7948 0.750027 16.9598 0.807822 17.0927 0.913909C17.2255 1.02 17.3184 1.16808 17.3561 1.33387L17.7712 3.15863C17.8652 3.57219 18.0743 3.95074 18.3742 4.25064C18.6741 4.55054 19.0526 4.75957 19.4662 4.85362L21.2913 5.26875C21.457 5.30651 21.605 5.39943 21.711 5.53229C21.8169 5.66514 21.8747 5.83005 21.8747 6C21.8747 6.16995 21.8169 6.33486 21.711 6.46771C21.605 6.60057 21.457 6.69349 21.2913 6.73125L19.4662 7.14637C19.0526 7.24043 18.6741 7.44946 18.3742 7.74936C18.0743 8.04926 17.8652 8.42781 17.7712 8.84138L17.3561 10.6661C17.3183 10.8318 17.2254 10.9798 17.0925 11.0858C16.9597 11.1918 16.7948 11.2495 16.6248 11.2495C16.4549 11.2495 16.29 11.1918 16.1571 11.0858C16.0242 10.9798 15.9313 10.8318 15.8936 10.6661L15.4784 8.84138C15.3844 8.42781 15.1754 8.04926 14.8755 7.74936C14.5756 7.44946 14.197 7.24043 13.7834 7.14637L11.9583 6.73125C11.7926 6.69349 11.6447 6.60057 11.5387 6.46771C11.4327 6.33486 11.375 6.16995 11.375 6C11.375 5.83005 11.4327 5.66514 11.5387 5.53229C11.6447 5.39943 11.7926 5.30651 11.9583 5.26875L13.7834 4.85362C14.197 4.75957 14.5756 4.55054 14.8755 4.25064C15.1754 3.95074 15.3844 3.57219 15.4784 3.15863L15.8936 1.33387C15.9312 1.16808 16.0241 1.02 16.157 0.913909C16.2898 0.807822 16.4548 0.750027 16.6248 0.75ZM16.6248 4.36425C16.2654 5.06815 15.693 5.64061 14.9891 6C15.693 6.35939 16.2654 6.93185 16.6248 7.63575C16.9842 6.93185 17.5567 6.35939 18.2606 6C17.5567 5.64061 16.9842 5.06815 16.6248 4.36425ZM12.1953 8.625C11.6483 8.625 11.1237 8.8423 10.7369 9.22909C10.3501 9.61589 10.1328 10.1405 10.1328 10.6875C10.1328 11.2345 10.3501 11.7591 10.7369 12.1459C11.1237 12.5327 11.6483 12.75 12.1953 12.75C12.7423 12.75 13.2669 12.5327 13.6537 12.1459C14.0405 11.7591 14.2578 11.2345 14.2578 10.6875C14.2578 10.1405 14.0405 9.61589 13.6537 9.22909C13.2669 8.8423 12.7423 8.625 12.1953 8.625ZM11.5878 10.6875C11.5878 10.3695 11.8499 10.0939 12.1953 10.0939C12.5407 10.0939 12.8028 10.3695 12.8028 10.6875C12.8028 11.0055 12.5407 11.2811 12.1953 11.2811C11.8499 11.2811 11.5878 11.0055 11.5878 10.6875Z" fill="white"/>
<path fill-rule="evenodd" clip-rule="evenodd" d="M3.125 5.25H10.4064C10.3051 5.481 10.25 5.73525 10.25 6C10.25 6.26475 10.3055 6.519 10.4064 6.75H3.125C2.72718 6.75 2.34564 6.90804 2.06434 7.18934C1.78304 7.47064 1.625 7.85218 1.625 8.25V14.6332C4.92613 13.7981 8.25575 14.6873 10.6685 16.7475C12.2622 15.7275 14.1418 15.474 15.875 15.9019V12.2186C16.106 12.3199 16.3603 12.375 16.625 12.375C16.8897 12.375 17.144 12.3195 17.375 12.2186V20.25C17.375 21.0456 17.0589 21.8087 16.4963 22.3713C15.9337 22.9339 15.1706 23.25 14.375 23.25H3.125C2.32935 23.25 1.56629 22.9339 1.00368 22.3713C0.441071 21.8087 0.125 21.0456 0.125 20.25V8.25C0.125 7.45435 0.441071 6.69129 1.00368 6.12868C1.56629 5.56607 2.32935 5.25 3.125 5.25ZM1.625 16.1588V20.25C1.625 20.6478 1.78304 21.0294 2.06434 21.3107C2.34564 21.592 2.72718 21.75 3.125 21.75H12.2911C10.8414 17.4026 6.27763 14.9111 1.82375 16.1321C1.75899 16.1498 1.69214 16.1588 1.625 16.1588ZM13.8601 21.75H14.375C14.7728 21.75 15.1544 21.592 15.4357 21.3107C15.717 21.0294 15.875 20.6478 15.875 20.25V17.4604C14.5269 17.0258 13.0441 17.1341 11.7657 17.8391C12.7422 18.9734 13.4572 20.3086 13.8601 21.75Z" fill="white"/>
</svg>
