<svg width="16" height="16" viewBox="0 0 16 16" fill="none" xmlns="http://www.w3.org/2000/svg">
<g clip-path="url(#clip0_461_679)">
<path d="M10.1032 0.96875H5.922C5.75447 0.96875 5.59972 1.058 5.51597 1.20312C5.43222 1.34825 5.43219 1.52675 5.51597 1.67188L9.98604 9.40625H15.2587L10.5088 1.20266C10.4676 1.13156 10.4085 1.07253 10.3373 1.03148C10.2661 0.990427 10.1854 0.968796 10.1032 0.96875ZM4.81357 2.37334L0.0632227 10.5777C0.0230069 10.647 0.00125655 10.7255 5.28328e-05 10.8056C-0.00115089 10.8858 0.0182322 10.9649 0.0563477 11.0354L2.0815 14.7854C2.12111 14.8588 2.17958 14.9202 2.25088 14.9635C2.32219 15.0067 2.40373 15.0301 2.4871 15.0312H2.49397C2.57626 15.0312 2.6571 15.0095 2.72836 14.9684C2.79963 14.9272 2.85882 14.8681 2.9 14.7968L7.44669 6.92944L4.81357 2.37334ZM15.9338 10.5722C15.8922 10.5025 15.8333 10.4449 15.7627 10.4048C15.6922 10.3648 15.6125 10.3437 15.5314 10.3438H6.58107L3.87238 15.0312H13.5063C13.5908 15.0313 13.6737 15.0084 13.7463 14.9651C13.8189 14.9219 13.8785 14.8598 13.9187 14.7854L15.9438 11.0354C15.9824 10.9639 16.0017 10.8837 15.9999 10.8025C15.9981 10.7213 15.9753 10.6419 15.9338 10.5722Z" fill="white"/>
</g>
<defs>
<clipPath id="clip0_461_679">
<rect width="16" height="16" fill="white"/>
</clipPath>
</defs>
</svg>
