<svg width="14" height="14" viewBox="0 0 14 14" fill="none" xmlns="http://www.w3.org/2000/svg">
<path d="M13.6791 10.2127L11.5924 5.33274C11.2124 4.43941 10.6458 3.93274 9.99912 3.89941C9.35912 3.86608 8.73912 4.31274 8.26578 5.16608L6.99911 7.43941C6.73245 7.91941 6.35245 8.20608 5.93912 8.23941C5.51912 8.27941 5.09912 8.05941 4.75912 7.62608L4.61245 7.43941C4.13912 6.84608 3.55245 6.55941 2.95245 6.61941C2.35245 6.67941 1.83912 7.09274 1.49912 7.76608L0.345782 10.0661C-0.0675514 10.8994 -0.0275515 11.8661 0.459115 12.6527C0.945782 13.4394 1.79245 13.9127 2.71912 13.9127H11.2258C12.1191 13.9127 12.9524 13.4661 13.4458 12.7194C13.9524 11.9727 14.0324 11.0327 13.6791 10.2127ZM3.64645 4.58674C4.24407 4.58674 4.81721 4.34934 5.2398 3.92676C5.66238 3.50418 5.89978 2.93103 5.89978 2.33341C5.89978 1.73579 5.66238 1.16265 5.2398 0.740064C4.81721 0.317482 4.24407 0.0800781 3.64645 0.0800781C3.04883 0.0800781 2.47568 0.317482 2.0531 0.740064C1.63052 1.16265 1.39312 1.73579 1.39312 2.33341C1.39312 2.93103 1.63052 3.50418 2.0531 3.92676C2.47568 4.34934 3.04883 4.58674 3.64645 4.58674Z" fill="white"/>
</svg>
