<svg width="16" height="11" viewBox="0 0 16 11" fill="none" xmlns="http://www.w3.org/2000/svg">
<path d="M4.99798 0.765625C4.99343 0.765625 4.98892 0.765641 4.98438 0.765665L4.96582 2.30403C4.97007 2.30399 4.97431 2.30395 4.97857 2.30395C5.98789 2.30395 6.77078 3.10232 8.4724 5.97775L8.57613 6.1528L8.58292 6.16426L9.53546 4.73046L9.52887 4.71938C9.3047 4.35362 9.08933 4.01709 8.88279 3.7098C8.64326 3.35375 8.41418 3.03568 8.19188 2.7517C7.0662 1.31382 6.12456 0.765625 4.99798 0.765625Z" fill="url(#paint0_linear_50_3575)"/>
<path d="M4.98493 0.765665C3.85288 0.771507 2.85207 1.50589 2.12939 2.62965C2.12727 2.63293 2.12516 2.63623 2.12305 2.63953L3.4496 3.36388C3.45175 3.3606 3.45391 3.35733 3.45607 3.35406C3.87807 2.71664 4.40324 2.31009 4.96637 2.30403C4.97061 2.30399 4.97486 2.30395 4.97912 2.30395L4.99852 0.765625C4.99398 0.765625 4.98946 0.765641 4.98493 0.765665Z" fill="url(#paint1_linear_50_3575)"/>
<path d="M2.12863 2.63086C2.12652 2.63415 2.1244 2.63744 2.12228 2.64074C1.64741 3.38234 1.2934 4.29238 1.10209 5.27414C1.10126 5.27839 1.10043 5.28264 1.09961 5.2869L2.58993 5.63967C2.59072 5.63541 2.5915 5.63114 2.59228 5.62688C2.75158 4.76408 3.05486 3.96386 3.44883 3.36509C3.45098 3.36181 3.45314 3.35854 3.45531 3.35527L2.12863 2.63086Z" fill="url(#paint2_linear_50_3575)"/>
<path d="M2.59261 5.62618L1.1024 5.27344C1.10157 5.27769 1.10075 5.28195 1.09993 5.2862C0.995604 5.82613 0.942531 6.37475 0.941417 6.92473C0.941408 6.92917 0.941405 6.93362 0.941407 6.93806L2.4698 7.07524C2.46968 7.07077 2.46955 7.06636 2.46944 7.06189C2.46869 7.02998 2.46831 6.99766 2.4683 6.9649C2.46906 6.52013 2.50988 6.07636 2.59025 5.63897C2.59103 5.63471 2.59181 5.63045 2.59261 5.62618Z" fill="url(#paint3_linear_50_3575)"/>
<path d="M2.51628 7.55259C2.48886 7.39453 2.47333 7.23462 2.4698 7.07421C2.46968 7.06976 2.46955 7.06535 2.46944 7.06086L0.941417 6.92371C0.941408 6.92815 0.941405 6.9326 0.941407 6.93705C0.941407 7.27933 0.969859 7.60067 1.02516 7.89674C1.02596 7.90101 1.02674 7.90522 1.02755 7.9095L2.51859 7.5654C2.51781 7.56115 2.51704 7.55687 2.51628 7.55259Z" fill="url(#paint4_linear_50_3575)"/>
<path d="M2.86472 8.34828C2.69841 8.16616 2.58071 7.90346 2.51883 7.56749C2.51804 7.56324 2.51729 7.55897 2.51652 7.55469L1.02539 7.89882C1.02619 7.90311 1.02698 7.90731 1.02779 7.91159C1.14049 8.50522 1.36153 8.99998 1.67807 9.37426C1.68088 9.37759 1.68371 9.38091 1.68654 9.38423L2.87362 8.35787C2.87065 8.3547 2.86766 8.3515 2.86472 8.34828Z" fill="url(#paint5_linear_50_3575)"/>
<path d="M7.28198 4.0918C6.38343 5.47447 5.83909 6.3417 5.83909 6.3417C4.64213 8.22404 4.22805 8.64593 3.56164 8.64593C3.28356 8.64593 3.05125 8.5466 2.87328 8.35673C2.87031 8.35356 2.86734 8.35035 2.8644 8.34714L1.67773 9.37312C1.68055 9.37644 1.68337 9.37977 1.68621 9.38309C2.12327 9.8942 2.7402 10.1778 3.50341 10.1778C4.65809 10.1778 5.48855 9.63165 6.96487 7.04271C6.96487 7.04271 7.5803 5.95243 8.00367 5.20141C7.74142 4.77662 7.50276 4.40888 7.28198 4.0918Z" fill="#0082FB"/>
<path d="M8.88426 1.91016C8.88122 1.91339 8.87814 1.91668 8.87511 1.91992C8.63915 2.17213 8.41269 2.45378 8.19238 2.75262C8.4147 3.03661 8.6442 3.3553 8.88373 3.71134C9.16606 3.27419 9.42959 2.92015 9.68787 2.64878C9.69094 2.64556 9.69394 2.64244 9.697 2.63924L8.88426 1.91016Z" fill="url(#paint6_linear_50_3575)"/>
<path d="M13.2465 1.77341C12.6198 1.13829 11.8727 0.765625 11.074 0.765625C10.2316 0.765625 9.52317 1.22867 8.88414 1.90895C8.88111 1.91217 8.87802 1.91546 8.875 1.9187L9.68777 2.64756C9.69083 2.64435 9.69382 2.64122 9.69689 2.63803C10.1179 2.19874 10.5253 1.97941 10.9769 1.97941C11.4631 1.97941 11.9181 2.20897 12.3121 2.61141C12.3152 2.61457 12.3183 2.61769 12.3213 2.62087L13.2559 1.78286C13.2528 1.77969 13.2496 1.77656 13.2465 1.77341Z" fill="#0082FB"/>
<path d="M15.0575 6.72179C15.0224 4.68254 14.3111 2.85949 13.2553 1.78289C13.2521 1.77972 13.249 1.77659 13.2458 1.77344L12.3115 2.61144C12.3146 2.6146 12.3177 2.61773 12.3208 2.6209C13.115 3.43942 13.6599 4.96191 13.7094 6.72135C13.7095 6.72577 13.7096 6.7302 13.7098 6.73463L15.0577 6.73506C15.0577 6.73064 15.0576 6.72621 15.0575 6.72179Z" fill="url(#paint7_linear_50_3575)"/>
<path d="M15.058 6.73614C15.058 6.73171 15.058 6.72728 15.0579 6.72284L13.7098 6.72241C13.7099 6.72684 13.71 6.73127 13.7102 6.7357C13.7123 6.81828 13.7134 6.90136 13.7134 6.98493C13.7134 7.46464 13.6421 7.85242 13.4968 8.13238C13.4946 8.13654 13.4924 8.1407 13.4902 8.1448L14.4953 9.1935C14.4978 9.18969 14.5002 9.18591 14.5028 9.18208C14.8676 8.61725 15.0592 7.83259 15.0592 6.88108C15.0592 6.83265 15.0588 6.78433 15.058 6.73614Z" fill="url(#paint8_linear_50_3575)"/>
<path d="M13.4963 8.13086C13.4942 8.13501 13.492 8.13917 13.4898 8.14328C13.3641 8.37927 13.1847 8.53666 12.9502 8.60549L13.4084 10.0542C13.469 10.0335 13.5281 10.0103 13.5856 9.98454C13.6027 9.97687 13.6198 9.96898 13.6367 9.96086C13.6464 9.95618 13.6561 9.95144 13.6657 9.94662C13.9687 9.79513 14.2247 9.5717 14.4318 9.28383C14.4445 9.26625 14.457 9.24852 14.4692 9.23047C14.4779 9.21775 14.4865 9.20493 14.4949 9.19197C14.4974 9.18817 14.4998 9.18438 14.5023 9.18056L13.4963 8.13086Z" fill="url(#paint9_linear_50_3575)"/>
<path d="M12.6586 8.64492C12.505 8.64492 12.3694 8.62197 12.2367 8.5625L11.7676 10.0456C12.0313 10.136 12.3126 10.1767 12.6263 10.1767C12.9153 10.1767 13.1806 10.1334 13.4211 10.0497L12.9631 8.60155C12.8644 8.63123 12.7617 8.64584 12.6586 8.64492Z" fill="url(#paint10_linear_50_3575)"/>
<path d="M11.7201 8.13901C11.7172 8.13566 11.7143 8.1323 11.7114 8.12891L10.6318 9.25524C10.6349 9.25848 10.6379 9.26171 10.6409 9.26493C11.016 9.66596 11.3742 9.91472 11.7804 10.0513L12.2492 8.56921C12.0781 8.49545 11.9124 8.36174 11.7201 8.13901Z" fill="url(#paint11_linear_50_3575)"/>
<path d="M11.711 8.12749C11.3873 7.74973 10.9867 7.12075 10.3566 6.10366L9.5355 4.72982L9.52891 4.71875L8.57617 6.15217L8.58296 6.16363L9.16476 7.14551C9.72872 8.09228 10.1882 8.77721 10.6315 9.25382C10.6346 9.25707 10.6376 9.2603 10.6406 9.26352L11.7197 8.1376C11.7168 8.13426 11.7139 8.13089 11.711 8.12749Z" fill="url(#paint12_linear_50_3575)"/>
<defs>
<linearGradient id="paint0_linear_50_3575" x1="8.90231" y1="5.58118" x2="5.727" y2="1.43374" gradientUnits="userSpaceOnUse">
<stop offset="0.0006" stop-color="#0867DF"/>
<stop offset="0.4539" stop-color="#0668E1"/>
<stop offset="0.8591" stop-color="#0064E0"/>
</linearGradient>
<linearGradient id="paint1_linear_50_3575" x1="2.74615" y1="2.88814" x2="4.91931" y2="1.24358" gradientUnits="userSpaceOnUse">
<stop offset="0.1323" stop-color="#0064DF"/>
<stop offset="0.9988" stop-color="#0064E0"/>
</linearGradient>
<linearGradient id="paint2_linear_50_3575" x1="1.82643" y1="5.31253" x2="2.70096" y2="3.11813" gradientUnits="userSpaceOnUse">
<stop offset="0.0147" stop-color="#0072EC"/>
<stop offset="0.6881" stop-color="#0064DF"/>
</linearGradient>
<linearGradient id="paint3_linear_50_3575" x1="1.70865" y1="6.89848" x2="1.80992" y2="5.55717" gradientUnits="userSpaceOnUse">
<stop offset="0.0731" stop-color="#007CF6"/>
<stop offset="0.9943" stop-color="#0072EC"/>
</linearGradient>
<linearGradient id="paint4_linear_50_3575" x1="1.76399" y1="7.62607" x2="1.69155" y2="7.08872" gradientUnits="userSpaceOnUse">
<stop offset="0.0731" stop-color="#007FF9"/>
<stop offset="1" stop-color="#007CF6"/>
</linearGradient>
<linearGradient id="paint5_linear_50_3575" x1="1.72197" y1="7.76933" x2="2.17292" y2="8.72273" gradientUnits="userSpaceOnUse">
<stop offset="0.0731" stop-color="#007FF9"/>
<stop offset="1" stop-color="#0082FB"/>
</linearGradient>
<linearGradient id="paint6_linear_50_3575" x1="8.61713" y1="3.15043" x2="9.21268" y2="2.32938" gradientUnits="userSpaceOnUse">
<stop offset="0.2799" stop-color="#007FF8"/>
<stop offset="0.9141" stop-color="#0082FB"/>
</linearGradient>
<linearGradient id="paint7_linear_50_3575" x1="13.1254" y1="2.08278" x2="14.3735" y2="6.65932" gradientUnits="userSpaceOnUse">
<stop stop-color="#0082FB"/>
<stop offset="0.9995" stop-color="#0081FA"/>
</linearGradient>
<linearGradient id="paint8_linear_50_3575" x1="14.666" y1="6.83758" x2="13.8768" y2="8.42736" gradientUnits="userSpaceOnUse">
<stop offset="0.0619" stop-color="#0081FA"/>
<stop offset="1" stop-color="#0080F9"/>
</linearGradient>
<linearGradient id="paint9_linear_50_3575" x1="13.2563" y1="9.27175" x2="13.9918" y2="8.77244" gradientUnits="userSpaceOnUse">
<stop stop-color="#027AF3"/>
<stop offset="1" stop-color="#0080F9"/>
</linearGradient>
<linearGradient id="paint10_linear_50_3575" x1="12.1055" y1="9.36962" x2="13.1253" y2="9.36962" gradientUnits="userSpaceOnUse">
<stop stop-color="#0377EF"/>
<stop offset="0.9994" stop-color="#0279F1"/>
</linearGradient>
<linearGradient id="paint11_linear_50_3575" x1="11.2189" y1="8.80746" x2="11.9534" y2="9.23818" gradientUnits="userSpaceOnUse">
<stop offset="0.0019" stop-color="#0471E9"/>
<stop offset="1" stop-color="#0377EF"/>
</linearGradient>
<linearGradient id="paint12_linear_50_3575" x1="8.98194" y1="5.61492" x2="11.34" y2="8.57027" gradientUnits="userSpaceOnUse">
<stop offset="0.2765" stop-color="#0867DF"/>
<stop offset="1" stop-color="#0471E9"/>
</linearGradient>
</defs>
</svg>
