<svg width="18" height="24" viewBox="0 0 18 24" fill="none" xmlns="http://www.w3.org/2000/svg">
<path d="M15 8.6775H14.6025V6.3525C14.6025 4.86662 14.0122 3.44161 12.9616 2.39093C11.9109 1.34026 10.4859 0.75 9 0.75C7.51412 0.75 6.08911 1.34026 5.03843 2.39093C3.98776 3.44161 3.3975 4.86662 3.3975 6.3525V8.6775H3C2.20435 8.6775 1.44129 8.99357 0.87868 9.55618C0.31607 10.1188 0 10.8819 0 11.6775V20.25C0 21.0456 0.31607 21.8087 0.87868 22.3713C1.44129 22.9339 2.20435 23.25 3 23.25H15C15.7956 23.25 16.5587 22.9339 17.1213 22.3713C17.6839 21.8087 18 21.0456 18 20.25V11.6775C18 10.8819 17.6839 10.1188 17.1213 9.55618C16.5587 8.99357 15.7956 8.6775 15 8.6775ZM4.8975 6.3525C4.8975 5.81375 5.00361 5.28028 5.20978 4.78254C5.41595 4.2848 5.71814 3.83255 6.09909 3.45159C6.48005 3.07064 6.9323 2.76845 7.43004 2.56228C7.92778 2.35611 8.46125 2.25 9 2.25C9.53875 2.25 10.0722 2.35611 10.57 2.56228C11.0677 2.76845 11.52 3.07064 11.9009 3.45159C12.2819 3.83255 12.584 4.2848 12.7902 4.78254C12.9964 5.28028 13.1025 5.81375 13.1025 6.3525V8.6775H4.8975V6.3525ZM16.5 20.25C16.5 20.6478 16.342 21.0294 16.0607 21.3107C15.7794 21.592 15.3978 21.75 15 21.75H3C2.60218 21.75 2.22064 21.592 1.93934 21.3107C1.65804 21.0294 1.5 20.6478 1.5 20.25V11.6775C1.5 11.2797 1.65804 10.8981 1.93934 10.6168C2.22064 10.3355 2.60218 10.1775 3 10.1775H15C15.3978 10.1775 15.7794 10.3355 16.0607 10.6168C16.342 10.8981 16.5 11.2797 16.5 11.6775V20.25Z" fill="#E55351"/>
<path d="M8.99992 13.4445C8.70894 13.4446 8.42461 13.5316 8.18337 13.6943C7.94213 13.857 7.75497 14.088 7.64588 14.3578C7.53678 14.6275 7.51072 14.9237 7.57104 15.2084C7.63136 15.493 7.7753 15.7532 7.98442 15.9555V17.7338C7.98442 17.9327 8.06344 18.1234 8.20409 18.2641C8.34475 18.4048 8.53551 18.4838 8.73442 18.4838H9.26542C9.46434 18.4838 9.6551 18.4048 9.79575 18.2641C9.93641 18.1234 10.0154 17.9327 10.0154 17.7338V15.9555C10.2245 15.7532 10.3685 15.493 10.4288 15.2084C10.4891 14.9237 10.4631 14.6275 10.354 14.3578C10.2449 14.088 10.0577 13.857 9.81647 13.6943C9.57523 13.5316 9.2909 13.4446 8.99992 13.4445Z" fill="#E55351"/>
</svg>
