<svg width="22" height="10" viewBox="0 0 22 10" fill="none" xmlns="http://www.w3.org/2000/svg">
<path d="M3.96151 4.89502L4.15729 7.08911L3.96151 9.3946C3.95138 9.47898 3.88725 9.54312 3.81299 9.54312C3.73872 9.54312 3.67121 9.47898 3.67121 9.3946L3.48218 7.08911L3.67121 4.89502C3.67121 4.82076 3.73535 4.75325 3.81299 4.75325C3.88725 4.75325 3.95138 4.82076 3.96151 4.89502ZM4.68387 3.35578C4.58936 3.35578 4.52522 3.43004 4.5151 3.52456L4.34632 7.08911L4.5151 9.3946C4.52522 9.48911 4.58936 9.56337 4.68387 9.56337C4.76826 9.56337 4.84252 9.48911 4.84252 9.3946L5.0383 7.08911L4.84252 3.52456C4.84252 3.43004 4.76826 3.35578 4.68387 3.35578ZM5.54463 2.54228C5.43999 2.54228 5.36573 2.61654 5.3556 2.72118L5.20708 7.10937L5.3556 9.39797C5.36573 9.50261 5.43999 9.57687 5.54463 9.57687C5.63915 9.57687 5.72353 9.50261 5.72353 9.39797L5.90244 7.10937L5.72353 2.72118C5.72353 2.61654 5.63915 2.54228 5.54463 2.54228ZM0.44421 5.80304C0.396952 5.80304 0.369948 5.84017 0.359822 5.88743L0.201172 7.08911L0.359822 8.27055C0.369948 8.31781 0.396952 8.35493 0.44421 8.35493C0.491467 8.35493 0.518471 8.31781 0.528598 8.27055L0.717628 7.08911L0.528598 5.88743C0.518471 5.84017 0.491467 5.80304 0.44421 5.80304ZM1.24083 5.0638C1.19358 5.0638 1.15645 5.10093 1.15645 5.14819L0.940412 7.08911L1.15645 8.98279C1.15645 9.04017 1.19358 9.0773 1.24083 9.0773C1.28809 9.0773 1.32522 9.04017 1.33535 8.99291L1.57839 7.08911L1.33535 5.14819C1.32522 5.10093 1.28809 5.0638 1.24083 5.0638ZM2.09484 4.67899C2.03746 4.67899 1.9902 4.72625 1.98345 4.79038L1.78767 7.08911L1.98345 9.31021C1.99358 9.36759 2.04083 9.41485 2.09484 9.41485C2.15223 9.41485 2.19948 9.36759 2.19948 9.31021L2.4324 7.08911L2.19948 4.79038C2.19948 4.72625 2.15223 4.67899 2.09484 4.67899ZM2.94885 4.60473C2.88472 4.60473 2.82733 4.65198 2.82733 4.72625L2.63155 7.08911L2.82733 9.37772C2.82733 9.45198 2.88472 9.49924 2.94885 9.49924C3.01299 9.49924 3.07037 9.45198 3.0805 9.37772L3.29653 7.08911L3.0805 4.72625C3.07037 4.65198 3.01299 4.60473 2.94885 4.60473ZM11.0974 0.861267C11.0602 0.834263 11.0029 0.81401 10.9556 0.81401C10.8813 0.81401 10.8138 0.841015 10.7666 0.878146C10.7024 0.935529 10.6619 1.01992 10.6552 1.10431V1.13131L10.5438 7.09586L10.6012 8.19291L10.6586 9.26295C10.6687 9.4216 10.8003 9.55324 10.959 9.55324C11.1176 9.55324 11.2493 9.4216 11.2493 9.26295L11.3809 7.09586L11.2493 1.10431C11.2358 1.00304 11.1818 0.908526 11.0974 0.861267ZM10.1961 1.37772C10.1489 1.35072 10.1016 1.33046 10.0476 1.33046C9.99358 1.33046 9.94294 1.35072 9.89906 1.37772C9.8248 1.42498 9.77754 1.50937 9.77754 1.60388L9.76742 1.66127L9.6729 7.08911C9.6729 7.08911 9.6729 7.09924 9.77754 9.30346V9.31358C9.77754 9.37097 9.7978 9.42498 9.83493 9.47223C9.89231 9.53637 9.96657 9.57687 10.051 9.57687C10.1252 9.57687 10.1927 9.53975 10.24 9.49249C10.2974 9.44523 10.3244 9.38109 10.3244 9.30346L10.3345 9.0773L10.4391 7.09924L10.3278 1.60388C10.3176 1.50937 10.2704 1.42498 10.1961 1.37772ZM6.43577 2.13722C6.33113 2.13722 6.23999 2.23173 6.23999 2.34312L6.09147 7.08911L6.23999 9.35747C6.25012 9.46886 6.33451 9.55324 6.43577 9.55324C6.54716 9.55324 6.63155 9.46886 6.64168 9.35747L6.81045 7.08911L6.64168 2.34312C6.63493 2.23173 6.55054 2.13722 6.43577 2.13722ZM19.1514 4.25705C18.7868 4.25705 18.4391 4.33131 18.1185 4.46295C17.9024 2.07308 15.8974 0.196289 13.4501 0.196289C12.8493 0.196289 12.2687 0.307681 11.7522 0.513589C11.5463 0.58785 11.4889 0.662112 11.4889 0.824137V9.25282C11.4889 9.4216 11.6206 9.54312 11.7792 9.56337H19.148C20.6096 9.56337 21.8012 8.38194 21.8012 6.92034C21.8045 5.44861 20.613 4.25705 19.1514 4.25705ZM9.13619 2.22161C8.99442 2.22161 8.88303 2.333 8.8729 2.4849L8.76151 7.09924L8.8729 9.31359C8.88303 9.45536 8.99442 9.56675 9.13619 9.56675C9.27796 9.56675 9.38936 9.45536 9.38936 9.31359L9.521 7.09924L9.38936 2.4849C9.37923 2.333 9.27796 2.22161 9.13619 2.22161ZM7.32691 1.95831C7.21552 1.95831 7.11088 2.06296 7.11088 2.18447L6.97923 7.08911L7.11088 9.34734C7.121 9.46886 7.21552 9.56337 7.32691 9.56337C7.44843 9.56337 7.54294 9.46886 7.55307 9.34734L7.70159 7.08911L7.55307 2.18447C7.54294 2.06295 7.44843 1.95831 7.32691 1.95831ZM8.22818 2.07308C8.09653 2.07308 7.99526 2.17772 7.99526 2.30599L7.86362 7.08911L7.99526 9.33046C8.00539 9.46211 8.09991 9.56337 8.22818 9.56337C8.35645 9.56337 8.46109 9.45873 8.46109 9.33046L8.60286 7.08911L8.46109 2.30599C8.46109 2.17435 8.35982 2.07308 8.22818 2.07308Z" fill="white"/>
</svg>
