<svg width="16" height="16" viewBox="0 0 16 16" fill="none" xmlns="http://www.w3.org/2000/svg">
<path d="M2 3C1.44775 3 1 3.44769 1 4V12C1 12.5522 1.44775 13 2 13C2.55225 13 3 12.5522 3 12V4C3 3.44769 2.55225 3 2 3ZM5 5C4.44775 5 4 5.44769 4 6V10C4 10.5522 4.44775 11 5 11C5.55225 11 6 10.5522 6 10V6C6 5.44769 5.55225 5 5 5ZM8 0C7.44775 0 7 0.447688 7 1V15C7 15.5522 7.44775 16 8 16C8.55225 16 9 15.5522 9 15V1C9 0.447688 8.55225 0 8 0ZM11 2.5C10.4478 2.5 10 2.94769 10 3.5V12.5C10 13.0522 10.4478 13.5 11 13.5C11.5522 13.5 12 13.0522 12 12.5V3.5C12 2.94769 11.5522 2.5 11 2.5ZM14 5C13.4478 5 13 5.44769 13 6V10C13 10.5522 13.4478 11 14 11C14.5522 11 15 10.5522 15 10V6C15 5.44769 14.5522 5 14 5Z" fill="white"/>
</svg>
