<svg width="17" height="15" viewBox="0 0 17 15" fill="none" xmlns="http://www.w3.org/2000/svg">
<path d="M0.00274996 7.07424C0.0385 5.38575 0.0550001 4.54149 0.64075 3.81825C0.748 3.68624 0.90475 3.5295 1.03675 3.42225C1.75725 2.83925 2.70875 2.83924 4.609 2.83924C5.28825 2.83924 5.62925 2.83924 5.951 2.75399C6.017 2.73749 6.08575 2.71549 6.15175 2.69349C6.468 2.58349 6.75125 2.391 7.31775 2.00874C9.55625 0.501745 10.6755 -0.251755 11.6133 0.0754948C11.792 0.138745 11.968 0.229495 12.122 0.339495C12.9333 0.922495 12.9965 2.27825 13.1202 4.98975C13.167 5.99349 13.1973 6.85424 13.1973 7.33274C13.1973 7.81124 13.167 8.66924 13.1202 9.67575C12.9965 12.3872 12.936 13.743 12.122 14.326C11.9653 14.4387 11.792 14.5295 11.6133 14.59C10.6728 14.9172 9.5535 14.1637 7.31775 12.6567C6.75125 12.2745 6.468 12.0847 6.15175 11.972C6.08575 11.95 6.01975 11.928 5.951 11.9115C5.6265 11.8262 5.28825 11.8262 4.609 11.8262C2.706 11.8262 1.75725 11.8262 1.03675 11.2432C0.90475 11.136 0.748 10.9792 0.64075 10.8472C0.0550001 10.124 0.0385 9.27974 0.00274996 7.59124C-4.20027e-08 7.50324 0 7.41524 0 7.32999C0 7.25024 -4.20027e-08 7.16224 0.00274996 7.07424Z" fill="white"/>
<path fill-rule="evenodd" clip-rule="evenodd" d="M16.2609 9.56009C16.3846 9.06509 16.5029 8.33359 16.5029 7.33534C16.5029 6.33709 16.3874 5.60834 16.2609 5.11059C16.1701 4.75309 16.1151 4.56059 15.9776 4.31034C15.8016 3.98584 15.4001 3.86759 15.0811 4.04909C14.7649 4.22784 14.6494 4.63209 14.8199 4.95659C15.1746 5.63034 15.1801 6.18309 15.1801 7.33534C15.1801 8.22634 15.0756 8.84234 14.9821 9.22459C14.9244 9.45284 14.8859 9.58759 14.8199 9.71409C14.6494 10.0386 14.7649 10.4428 15.0811 10.6216C15.4001 10.8031 15.8016 10.6848 15.9776 10.3603C15.9776 10.3603 16.1976 9.80759 16.2609 9.56009Z" fill="white" fill-opacity="0.3"/>
</svg>
