<svg width="27" height="18" viewBox="0 0 27 18" fill="none" xmlns="http://www.w3.org/2000/svg">
<path d="M24.3637 7.29222C24.057 7.29222 23.7463 7.21103 23.4647 7.0406C18.9632 4.31522 13.6953 3.8544 10.0692 3.94806C6.04835 4.0517 3.08229 4.84072 3.05273 4.84859C2.12648 5.09867 1.17164 4.5511 0.920595 3.62485C0.669552 2.6988 1.2152 1.74472 2.14107 1.49253C2.27484 1.45626 5.46718 0.599487 9.88231 0.474156C12.4845 0.400456 14.9828 0.596608 17.308 1.05704C20.2553 1.6407 22.9327 2.65312 25.2659 4.06571C26.0874 4.563 26.3501 5.63223 25.8527 6.45368C25.5258 6.99358 24.9519 7.29222 24.3637 7.29222Z" fill="white"/>
<path d="M22.1438 12.677C21.8797 12.677 21.6123 12.6071 21.3699 12.4603C13.8555 7.91063 3.89753 10.5454 3.79792 10.5727C3.00008 10.7899 2.17728 10.3191 1.96021 9.52148C1.74295 8.72382 2.21356 7.90102 3.0114 7.68377C3.12656 7.65247 5.87497 6.9149 9.67612 6.80704C11.9163 6.74332 14.0674 6.9124 16.0694 7.30893C18.6067 7.81139 20.9118 8.68294 22.9205 9.8992C23.6278 10.3274 23.8541 11.2479 23.4259 11.9551C23.1443 12.4198 22.6503 12.677 22.1438 12.677Z" fill="white"/>
<path d="M20.3404 17.3721C20.1577 17.3721 19.9729 17.3251 19.804 17.2259C13.1203 13.3063 4.2787 15.5722 4.19022 15.5954C3.6225 15.7453 3.04133 15.4064 2.89182 14.8391C2.74212 14.2715 3.08087 13.6902 3.64821 13.5407C3.74782 13.5144 6.12505 12.8964 9.42276 12.8058C13.825 12.6843 17.787 13.5794 20.879 15.3928C21.3853 15.6897 21.5549 16.3407 21.258 16.8468C21.0601 17.1842 20.7051 17.3721 20.3404 17.3721Z" fill="white"/>
</svg>
