<svg width="16" height="16" viewBox="0 0 16 16" fill="none" xmlns="http://www.w3.org/2000/svg">
<path d="M6.63501 7.30829L8.50451 9.17779L2.06851 15.614C2.00593 15.6771 1.9315 15.7271 1.84951 15.7612C1.76751 15.7954 1.67958 15.8129 1.59076 15.8129C1.50195 15.8129 1.41401 15.7954 1.33201 15.7612C1.25002 15.7271 1.17559 15.6771 1.11301 15.614L0.198761 14.6998C0.135774 14.6372 0.085785 14.5628 0.0516732 14.4808C0.0175614 14.3989 0 14.311 0 14.2222C0 14.1334 0.0175614 14.0455 0.0516732 13.9635C0.085785 13.8815 0.135774 13.8071 0.198761 13.7445L6.63501 7.30829ZM10.9593 5.77229L10.0405 4.85354C9.91396 4.72837 9.74314 4.65816 9.56514 4.65816C9.38713 4.65816 9.21632 4.72837 9.08976 4.85354L6.95476 6.98854L8.82901 8.85355L10.9593 6.72329C11.0845 6.59673 11.1548 6.42586 11.1548 6.24779C11.1548 6.06973 11.0845 5.89886 10.9593 5.77229ZM6.68576 0.268045L6.47801 0.941545C6.39343 1.21581 6.24313 1.46527 6.04018 1.66822C5.83723 1.87116 5.58778 2.02146 5.31351 2.10605L4.63976 2.3138C4.61631 2.32096 4.59578 2.33547 4.58119 2.35518C4.5666 2.3749 4.55873 2.39877 4.55873 2.4233C4.55873 2.44782 4.5666 2.47169 4.58119 2.49141C4.59578 2.51112 4.61631 2.52563 4.63976 2.53279L5.31351 2.74055C5.58778 2.82513 5.83723 2.97543 6.04018 3.17838C6.24313 3.38132 6.39343 3.63078 6.47801 3.90505L6.68551 4.57879C6.69261 4.60234 6.70711 4.62298 6.72685 4.63765C6.7466 4.65232 6.77054 4.66024 6.79514 4.66024C6.81973 4.66024 6.84368 4.65232 6.86342 4.63765C6.88316 4.62298 6.89766 4.60234 6.90476 4.57879L7.11226 3.90505C7.19687 3.63075 7.3472 3.38128 7.5502 3.17833C7.75319 2.97538 8.0027 2.82509 8.27701 2.74055L8.95051 2.53305C8.97406 2.52594 8.9947 2.51145 9.00937 2.4917C9.02403 2.47196 9.03196 2.44802 9.03196 2.42342C9.03196 2.39882 9.02403 2.37488 9.00937 2.35514C8.9947 2.33539 8.97406 2.3209 8.95051 2.3138L8.27701 2.1063C8.00272 2.02169 7.75324 1.87135 7.55029 1.66836C7.34734 1.46536 7.19706 1.21586 7.11251 0.941545L6.90476 0.268045C6.89759 0.244593 6.88308 0.224061 6.86337 0.209473C6.84366 0.194885 6.81978 0.187012 6.79526 0.187012C6.77074 0.187012 6.74686 0.194885 6.72715 0.209473C6.70744 0.224061 6.69293 0.244593 6.68576 0.268045ZM11.7055 8.76479L11.5785 9.1763C11.5268 9.34377 11.435 9.49609 11.3111 9.62C11.1871 9.74392 11.0348 9.83567 10.8673 9.88729L10.456 10.0143C10.4417 10.0187 10.4292 10.0276 10.4204 10.0396C10.4115 10.0517 10.4067 10.0662 10.4067 10.0812C10.4067 10.0961 10.4115 10.1107 10.4204 10.1227C10.4292 10.1348 10.4417 10.1436 10.456 10.148L10.8673 10.2748C11.0348 10.3264 11.1872 10.4182 11.3111 10.5422C11.4351 10.6662 11.5269 10.8185 11.5785 10.986L11.7055 11.3975C11.7099 11.4118 11.7188 11.4243 11.7308 11.4332C11.7429 11.4421 11.7574 11.4469 11.7724 11.4469C11.7873 11.4469 11.8019 11.4421 11.8139 11.4332C11.826 11.4243 11.8348 11.4118 11.8393 11.3975L11.966 10.986C12.0177 10.8185 12.1096 10.6662 12.2336 10.5423C12.3576 10.4184 12.51 10.3266 12.6775 10.275L13.0888 10.1483C13.103 10.1439 13.1155 10.135 13.1244 10.123C13.1333 10.1109 13.1381 10.0964 13.1381 10.0814C13.1381 10.0665 13.1333 10.0519 13.1244 10.0399C13.1155 10.0278 13.103 10.019 13.0888 10.0145L12.6775 9.88754C12.51 9.83592 12.3577 9.74417 12.2337 9.62025C12.1098 9.49634 12.0179 9.34402 11.9663 9.17655L11.8395 8.76505C11.8351 8.75076 11.8262 8.73826 11.8142 8.72939C11.8021 8.72052 11.7876 8.71573 11.7726 8.71573C11.7577 8.71573 11.7431 8.72052 11.7311 8.72939C11.7191 8.73826 11.7102 8.75076 11.7058 8.76505L11.7055 8.76479ZM14.2205 4.72079L14.063 5.23179C13.9989 5.43982 13.8849 5.62902 13.7309 5.78295C13.577 5.93689 13.3878 6.05089 13.1798 6.11504L12.669 6.27254C12.6512 6.27803 12.6357 6.28906 12.6247 6.30402C12.6136 6.31898 12.6077 6.33708 12.6077 6.35567C12.6077 6.37426 12.6136 6.39236 12.6247 6.40732C12.6357 6.42228 12.6512 6.43331 12.669 6.43879L13.1798 6.59629C13.3879 6.66044 13.5771 6.77446 13.7311 6.92844C13.8851 7.08242 13.9991 7.2717 14.0633 7.47979L14.2208 7.99054C14.2458 8.07229 14.3618 8.07229 14.3868 7.99054L14.5443 7.47979C14.6084 7.2717 14.7224 7.08242 14.8764 6.92844C15.0304 6.77446 15.2197 6.66044 15.4278 6.59629L15.9388 6.43879C15.9565 6.43331 15.9721 6.42228 15.9831 6.40732C15.9941 6.39236 16.0001 6.37426 16.0001 6.35567C16.0001 6.33708 15.9941 6.31898 15.9831 6.30402C15.9721 6.28906 15.9565 6.27803 15.9388 6.27254L15.4278 6.11504C15.2197 6.05089 15.0305 5.93689 14.8766 5.78295C14.7227 5.62902 14.6087 5.43982 14.5445 5.23179L14.387 4.72079C14.3815 4.70303 14.3705 4.6875 14.3555 4.67646C14.3406 4.66542 14.3225 4.65947 14.3039 4.65947C14.2853 4.65947 14.2672 4.66542 14.2522 4.67646C14.2373 4.6875 14.226 4.70303 14.2205 4.72079Z" fill="white"/>
</svg>
