<svg width="20" height="20" viewBox="0 0 20 20" fill="none" xmlns="http://www.w3.org/2000/svg">
<path d="M9.97847 2.27271C4.92829 2.27271 0.819376 5.74893 0.819376 10.0227C0.837657 11.811 1.53828 13.5247 2.77801 14.8136L1.0251 16.5693C0.926316 16.6679 0.859012 16.7935 0.831722 16.9304C0.804433 17.0672 0.818387 17.2091 0.871816 17.3379C0.925246 17.4668 1.01574 17.577 1.13184 17.6544C1.24793 17.7318 1.38439 17.773 1.52392 17.7727H9.97847C15.0287 17.7727 19.1376 14.2965 19.1376 10.0227C19.1376 5.74893 15.0287 2.27271 9.97847 2.27271Z" fill="#E55351"/>
<path d="M14.2057 7.90906H5.75118C5.56432 7.90906 5.38512 7.98329 5.25299 8.11541C5.12086 8.24754 5.04663 8.42675 5.04663 8.6136C5.04663 8.80046 5.12086 8.97966 5.25299 9.11179C5.38512 9.24392 5.56432 9.31815 5.75118 9.31815H14.2057C14.3926 9.31815 14.5718 9.24392 14.7039 9.11179C14.836 8.97966 14.9103 8.80046 14.9103 8.6136C14.9103 8.42675 14.836 8.24754 14.7039 8.11541C14.5718 7.98329 14.3926 7.90906 14.2057 7.90906ZM11.3875 10.7272H5.75118C5.56432 10.7272 5.38512 10.8015 5.25299 10.9336C5.12086 11.0657 5.04663 11.2449 5.04663 11.4318C5.04663 11.6186 5.12086 11.7978 5.25299 11.93C5.38512 12.0621 5.56432 12.1363 5.75118 12.1363H11.3875C11.5744 12.1363 11.7536 12.0621 11.8857 11.93C12.0179 11.7978 12.0921 11.6186 12.0921 11.4318C12.0921 11.2449 12.0179 11.0657 11.8857 10.9336C11.7536 10.8015 11.5744 10.7272 11.3875 10.7272Z" fill="#151E31"/>
</svg>
