<svg width="21" height="20" viewBox="0 0 21 20" fill="none" xmlns="http://www.w3.org/2000/svg">
<path d="M16.8584 14.9998C16.7258 14.9998 16.5986 14.9471 16.5048 14.8533C16.4111 14.7596 16.3584 14.6324 16.3584 14.4998V7.58829C16.358 7.39119 16.3965 7.19596 16.4718 7.0138C16.547 6.83163 16.6575 6.66611 16.7969 6.52675C16.9362 6.38738 17.1017 6.27691 17.2839 6.20166C17.4661 6.12642 17.6613 6.08789 17.8584 6.08829C18.6485 6.08823 19.4277 5.90421 20.1344 5.55079C20.2529 5.49285 20.3896 5.48411 20.5145 5.52648C20.6395 5.56886 20.7426 5.6589 20.8015 5.77699C20.8603 5.89509 20.8701 6.03165 20.8287 6.15693C20.7873 6.2822 20.698 6.38603 20.5804 6.44579C19.7354 6.86898 18.8034 7.08948 17.8584 7.08979C17.7258 7.08979 17.5986 7.14247 17.5048 7.23623C17.4111 7.33 17.3584 7.45718 17.3584 7.58979V14.4998C17.3584 14.6324 17.3057 14.7596 17.212 14.8533C17.1182 14.9471 16.991 14.9998 16.8584 14.9998Z" fill="white"/>
<path d="M14.3574 11.5C13.7641 11.5 13.1841 11.6759 12.6907 12.0056C12.1974 12.3352 11.8128 12.8038 11.5858 13.3519C11.3587 13.9001 11.2993 14.5033 11.4151 15.0853C11.5308 15.6672 11.8165 16.2018 12.2361 16.6213C12.6557 17.0409 13.1902 17.3266 13.7722 17.4424C14.3541 17.5581 14.9573 17.4987 15.5055 17.2716C16.0537 17.0446 16.5222 16.6601 16.8518 16.1667C17.1815 15.6734 17.3574 15.0933 17.3574 14.5C17.3566 13.7046 17.0403 12.942 16.4779 12.3796C15.9154 11.8171 15.1528 11.5008 14.3574 11.5Z" fill="white"/>
<path d="M15.8574 18.2048V18.4998C15.8562 18.8973 15.6978 19.2781 15.4168 19.5592C15.1357 19.8402 14.7549 19.9987 14.3574 19.9998H2.35742C1.95996 19.9987 1.57912 19.8402 1.29807 19.5592C1.01703 19.2781 0.858609 18.8973 0.857422 18.4998V17.4998C0.857102 16.1679 1.21151 14.8599 1.8842 13.7103C2.55689 12.5606 3.5236 11.6109 4.68496 10.9587C5.84631 10.3065 7.1604 9.97533 8.49215 9.99926C9.8239 10.0232 11.1252 10.4013 12.2624 11.0948C11.5216 11.5516 10.9499 12.2374 10.6341 13.0484C10.3183 13.8595 10.2756 14.7513 10.5125 15.5888C10.7495 16.4262 11.2531 17.1636 11.9469 17.6889C12.6408 18.2143 13.4871 18.499 14.3574 18.4998C14.8719 18.5001 15.3814 18.3999 15.8574 18.2048Z" fill="white"/>
<path d="M8.3584 11.0005C11.396 11.0005 13.8584 8.53805 13.8584 5.50049C13.8584 2.46292 11.396 0.000488281 8.3584 0.000488281C5.32083 0.000488281 2.8584 2.46292 2.8584 5.50049C2.8584 8.53805 5.32083 11.0005 8.3584 11.0005Z" fill="white"/>
</svg>
