<svg width="24" height="24" viewBox="0 0 24 24" fill="none" xmlns="http://www.w3.org/2000/svg">
<path fill-rule="evenodd" clip-rule="evenodd" d="M6.75 6C6.75 3.1005 9.1005 0.75 12 0.75C14.8995 0.75 17.25 3.1005 17.25 6C17.25 8.8995 14.8995 11.25 12 11.25C9.1005 11.25 6.75 8.8995 6.75 6ZM12 2.25C9.92887 2.25 8.25 3.92887 8.25 6C8.25 8.07113 9.92887 9.75 12 9.75C14.0711 9.75 15.75 8.07113 15.75 6C15.75 3.92887 14.0711 2.25 12 2.25Z" fill="#E55351"/>
<path d="M0.75 19.3237C0.75 15.6926 3.693 12.75 7.32375 12.75H16.6763C20.3074 12.75 23.25 15.693 23.25 19.3237C23.25 21.4916 21.492 23.25 19.3237 23.25H10.5C10.3011 23.25 10.1103 23.171 9.96967 23.0303C9.82902 22.8897 9.75 22.6989 9.75 22.5C9.75 22.3011 9.82902 22.1103 9.96967 21.9697C10.1103 21.829 10.3011 21.75 10.5 21.75H19.3237C19.9672 21.75 20.5844 21.4944 21.0394 21.0394C21.4944 20.5844 21.75 19.9672 21.75 19.3237C21.75 16.521 19.4786 14.25 16.6763 14.25H7.32375C4.521 14.25 2.25 16.5214 2.25 19.3237C2.25 19.9672 2.50562 20.5844 2.96063 21.0394C3.41564 21.4944 4.03277 21.75 4.67625 21.75H6.75C6.94891 21.75 7.13968 21.829 7.28033 21.9697C7.42098 22.1103 7.5 22.3011 7.5 22.5C7.5 22.6989 7.42098 22.8897 7.28033 23.0303C7.13968 23.171 6.94891 23.25 6.75 23.25H4.67625C2.50838 23.25 0.75 21.492 0.75 19.3237Z" fill="#E55351"/>
</svg>
