<svg width="16" height="16" viewBox="0 0 16 16" fill="none" xmlns="http://www.w3.org/2000/svg">
<path d="M2.75014 0H13.25C14.77 0 16 1.23499 16 2.74997V13.2499C16 14.7648 14.77 15.9998 13.25 15.9998H2.75014C1.23516 15.9998 0.000171661 14.7648 0.000171661 13.2499V2.74997C0.000171661 1.23499 1.23516 0 2.75014 0ZM10.0001 1.49998H9.25007C8.84008 1.49998 8.50008 1.83498 8.50008 2.24998C8.50008 2.66497 8.84008 2.99997 9.25007 2.99997H10.0001C10.4151 2.99997 10.7501 2.66497 10.7501 2.24998C10.7501 1.83498 10.4151 1.49998 10.0001 1.49998ZM5.71011 7.59492C5.58011 7.68992 5.50011 7.83992 5.50011 7.99991C5.50011 8.16491 5.58011 8.31491 5.71011 8.40991L9.21007 10.9099C9.30007 10.9699 9.40007 10.9999 9.50007 10.9999C9.58022 11.0019 9.6595 10.9829 9.73007 10.9449C9.8117 10.9028 9.88011 10.8389 9.92776 10.7604C9.9754 10.6819 10.0004 10.5917 10.0001 10.4999V5.49994C10.0001 5.31494 9.89507 5.14494 9.73007 5.05995C9.56507 4.97495 9.36507 4.98495 9.21007 5.09494L5.71011 7.59492ZM12.5 14.4998H13.25C13.665 14.4998 14 14.1648 14 13.7499C14 13.3349 13.665 12.9999 13.25 12.9999H12.5C12.09 12.9999 11.75 13.3349 11.75 13.7499C11.75 14.1648 12.09 14.4998 12.5 14.4998ZM12.5 2.99997H13.25C13.665 2.99997 14 2.66497 14 2.24998C14 1.83498 13.665 1.49998 13.25 1.49998H12.5C12.09 1.49998 11.75 1.83498 11.75 2.24998C11.75 2.66497 12.09 2.99997 12.5 2.99997ZM9.25007 14.4998H10.0001C10.4151 14.4998 10.7501 14.1648 10.7501 13.7499C10.7501 13.3349 10.4151 12.9999 10.0001 12.9999H9.25007C8.84008 12.9999 8.50008 13.3349 8.50008 13.7499C8.50008 14.1648 8.84008 14.4998 9.25007 14.4998ZM6.00011 14.4998H6.7501C7.16509 14.4998 7.50009 14.1648 7.50009 13.7499C7.50009 13.3349 7.16509 12.9999 6.7501 12.9999H6.00011C5.59011 12.9999 5.25012 13.3349 5.25012 13.7499C5.25012 14.1648 5.59011 14.4998 6.00011 14.4998ZM6.00011 2.99997H6.7501C7.16509 2.99997 7.50009 2.66497 7.50009 2.24998C7.50009 1.83498 7.16509 1.49998 6.7501 1.49998H6.00011C5.59011 1.49998 5.25012 1.83498 5.25012 2.24998C5.25012 2.66497 5.59011 2.99997 6.00011 2.99997ZM2.75014 14.4998H3.50013C3.91513 14.4998 4.25013 14.1648 4.25013 13.7499C4.25013 13.3349 3.91513 12.9999 3.50013 12.9999H2.75014C2.34015 12.9999 2.00015 13.3349 2.00015 13.7499C2.00015 14.1648 2.34015 14.4998 2.75014 14.4998ZM2.75014 2.99997H3.50013C3.91513 2.99997 4.25013 2.66497 4.25013 2.24998C4.25013 1.83498 3.91513 1.49998 3.50013 1.49998H2.75014C2.34015 1.49998 2.00015 1.83498 2.00015 2.24998C2.00015 2.66497 2.34015 2.99997 2.75014 2.99997Z" fill="white"/>
</svg>
