<svg width="22" height="16" viewBox="0 0 22 16" fill="none" xmlns="http://www.w3.org/2000/svg">
<path d="M21.3445 2.93031C21.096 1.99638 20.3641 1.26082 19.4348 1.01121C17.7503 0.557617 10.9958 0.557617 10.9958 0.557617C10.9958 0.557617 4.24133 0.557617 2.55682 1.01121C1.6275 1.26086 0.895573 1.99638 0.647152 2.93031C0.195801 4.62314 0.195801 8.15507 0.195801 8.15507C0.195801 8.15507 0.195801 11.687 0.647152 13.3798C0.895573 14.3138 1.6275 15.0187 2.55682 15.2683C4.24133 15.7219 10.9958 15.7219 10.9958 15.7219C10.9958 15.7219 17.7503 15.7219 19.4348 15.2683C20.3641 15.0187 21.096 14.3138 21.3445 13.3798C21.7958 11.687 21.7958 8.15507 21.7958 8.15507C21.7958 8.15507 21.7958 4.62314 21.3445 2.93031ZM8.7867 11.3618V4.94835L14.4321 8.15514L8.7867 11.3618Z" fill="white"/>
</svg>
